<?xml version="1.0" encoding="UTF-8"?>
<svg width="513px" height="513px" viewBox="0 0 513 513" version="1.1" xmlns="http://www.w3.org/2000/svg" xmlns:xlink="http://www.w3.org/1999/xlink">
    <!-- Generator: Sketch 50.2 (55047) - http://www.bohemiancoding.com/sketch -->
    <title>Analitik-2</title>
    <desc>Created with Sketch.</desc>
    <defs></defs>
    <g id="Page-1" stroke="none" stroke-width="1" fill="none" fill-rule="evenodd">
        <g id="Analitik-2" fill-rule="nonzero">
            <path d="M266.941,0 C261.05,0 256.274,4.776 256.274,10.667 L256.274,245.334 C256.274,251.225 261.05,256.001 266.941,256.001 L501.608,256.001 C507.499,256.001 512.275,251.225 512.275,245.334 C512.121,109.903 402.371,0.153 266.941,0 Z" id="Shape" fill="#FFC107"></path>
            <path d="M382.03,452.117 L234.937,263.019 L234.937,32 C234.937,26.109 230.161,21.333 224.27,21.333 C100.75,21.333 0.270000011,131.392 0.270000011,266.666 C0.423000011,402.097 110.173,511.847 245.603,512 C294.776,515.821 343.398,499.55 380.366,466.901 C384.833,463.237 385.571,456.683 382.03,452.117 Z" id="Shape" fill="#ECF4F7"></path>
            <path d="M501.606986,277.333 L288.273986,277.333 C282.382986,277.334 277.607986,282.111 277.609986,288.002 C277.609986,290.439 278.444986,292.802 279.975986,294.698 L418.642986,466.367 C420.502986,468.675 423.238986,470.104 426.194986,470.314 L426.941986,470.314 C429.640986,470.316 432.240986,469.294 434.216986,467.455 C483.906986,420.986 512.159986,356.032 512.275986,287.999 C512.273986,282.109 507.498986,277.333 501.606986,277.333 Z" id="Shape" fill="#3FBE73"></path>
        </g>
    </g>
</svg>