<?xml version="1.0" encoding="UTF-8"?>
<svg width="542px" height="538px" viewBox="0 0 542 538" version="1.1" xmlns="http://www.w3.org/2000/svg" xmlns:xlink="http://www.w3.org/1999/xlink">
    <!-- Generator: Sketch 50.2 (55047) - http://www.bohemiancoding.com/sketch -->
    <title>Slice 1</title>
    <desc>Created with Sketch.</desc>
    <defs></defs>
    <g id="Page-1" stroke="none" stroke-width="1" fill="none" fill-rule="evenodd">
        <g id="pie-chart-m-2" fill-rule="nonzero" stroke="#FFFFFF" stroke-width="28">
            <path d="M295.274,18.0274947 L295.274,246.001 L523.24748,246.001 C521.332701,120.948507 420.325493,19.9413224 295.274,18.0274947 Z" id="Shape"></path>
            <path d="M374.029137,479.205399 L225.937,288.822941 L225.937,56.3617722 C111.970777,58.3305056 19.2699999,161.082306 19.2699911,287.650184 C19.4142698,415.361407 122.908302,518.85573 250.618816,519.000009 L251.154014,519.000614 L251.687604,519.042076 C296.172,522.498747 340.167299,508.144108 374.029114,479.20537 Z" id="Shape"></path>
            <path d="M524.246464,311.333 L321.254677,311.333 L453.260044,474.754948 C497.707501,431.882481 523.256845,373.061142 524.246464,311.333 Z M452.194986,476.400936 L452.194986,476.314 L452.947435,476.314004 C452.692356,476.31419 452.440274,476.34355 452.194986,476.400936 Z M452.947435,476.314004 L452.95236,476.314004 C452.950719,476.314003 452.949077,476.314003 452.947436,476.314004 Z" id="Shape"></path>
        </g>
    </g>
</svg>