<?xml version="1.0" encoding="UTF-8"?>
<svg width="531px" height="488px" viewBox="0 0 531 488" version="1.1" xmlns="http://www.w3.org/2000/svg" xmlns:xlink="http://www.w3.org/1999/xlink">
    <!-- Generator: Sketch 50.2 (55047) - http://www.bohemiancoding.com/sketch -->
    <title>shopping-cart-3</title>
    <desc>Created with Sketch.</desc>
    <defs></defs>
    <g id="Page-1" stroke="none" stroke-width="1" fill="none" fill-rule="evenodd">
        <g id="shopping-cart-3" transform="translate(265.500000, 244.000000) scale(-1, 1) translate(-265.500000, -244.000000) " fill="#FFFFFF" fill-rule="nonzero">
            <path d="M44.133,274.598 C44.133,279.308 47.947,283.131 52.666,283.131 L82.533,283.131 C87.252,283.131 91.066,279.308 91.066,274.598 C91.066,269.888 87.252,266.065 82.533,266.065 L52.667,266.065 C47.948,266.065 44.133,269.888 44.133,274.598 Z" id="Shape"></path>
            <path d="M78.267,223.398 C78.267,218.688 74.453,214.865 69.734,214.865 L18.534,214.865 C13.815,214.865 10.001,218.688 10.001,223.398 C10.001,228.108 13.815,231.931 18.534,231.931 L69.734,231.931 C74.452,231.932 78.267,228.109 78.267,223.398 Z" id="Shape"></path>
            <path d="M95.333,317.265 L35.6,317.265 C30.881,317.265 27.067,321.088 27.067,325.798 C27.067,330.508 30.881,334.331 35.6,334.331 L95.333,334.331 C100.052,334.331 103.866,330.508 103.866,325.798 C103.866,321.088 100.052,317.265 95.333,317.265 Z" id="Shape"></path>
            <path d="M168,402 C143.181642,402 123,419.94041 123,442 C123,464.060762 143.182961,482 168,482 C192.818358,482 213,464.05959 213,442 C213,419.94041 192.818358,402 168,402 Z M168,462.000586 C155.59148,462.000586 145.499341,453.030967 145.499341,442 C145.499341,430.970205 155.590162,421.999414 168,421.999414 C180.40852,421.999414 190.500659,430.969033 190.500659,442 C190.500659,453.030967 180.40852,462.000586 168,462.000586 Z" id="Shape" stroke="#FFFFFF" stroke-width="10"></path>
            <path d="M413,392 C388.181642,392 368,412.182961 368,437 C368,461.818358 388.182961,482 413,482 C437.818358,482 458,461.817039 458,437 C458,412.182961 437.818358,392 413,392 Z M413,459.500659 C400.59148,459.500659 390.499341,449.409838 390.499341,437 C390.499341,424.59148 400.590162,414.499341 413,414.499341 C425.40852,414.499341 435.500659,424.590162 435.500659,437 C435.500659,449.409838 425.40852,459.500659 413,459.500659 Z" id="Shape" stroke="#FFFFFF" stroke-width="10"></path>
            <path d="M168,211.115071 C168,215.052575 171.188459,218.248557 175.133486,218.248557 L224.677485,218.248557 L228.957744,261.051148 L184.050971,261.051148 C180.105944,261.051148 176.917485,264.24713 176.917485,268.184634 C176.917485,272.122138 180.105944,275.31812 184.050971,275.31812 L230.384775,275.31812 L234.022996,311.700322 C234.394174,315.37449 237.489838,318.120711 241.113847,318.120711 C241.349595,318.120711 241.584508,318.114023 241.834468,318.084763 C245.751073,317.692685 248.611824,314.196583 248.218909,310.273291 L244.723643,275.31812 L305.325256,275.31812 L305.325256,310.987224 C305.325256,314.924728 308.513715,318.120711 312.458742,318.120711 C316.40377,318.120711 319.592229,314.924728 319.592229,310.987224 L319.592229,275.31812 L380.193842,275.31812 L376.698576,310.273291 C376.306497,314.196583 379.167248,317.692685 383.083017,318.084763 C383.332977,318.113187 383.56789,318.120711 383.803638,318.120711 C387.427647,318.120711 390.523311,315.37449 390.894489,311.700322 L394.53271,275.31812 L430.165866,275.31812 C434.110894,275.31812 437.299352,272.122138 437.299352,268.184634 C437.299352,264.24713 434.110894,261.051148 430.165866,261.051148 L395.959741,261.051148 L400.24,218.248557 L440.866514,218.248557 C444.811541,218.248557 448,215.052575 448,211.115071 C448,207.177567 444.811541,203.981584 440.866514,203.981584 L401.666196,203.981584 L405.161462,169.026414 C405.553541,165.103122 402.692789,161.60702 398.777021,161.214942 C394.796046,160.808651 391.365151,163.683614 390.965548,167.599383 L387.327328,203.981584 L319.592229,203.981584 L319.592229,168.31248 C319.592229,164.374977 316.40377,161.178994 312.458742,161.178994 C308.513715,161.178994 305.325256,164.374977 305.325256,168.31248 L305.325256,203.981584 L237.590157,203.981584 L233.951937,167.599383 C233.559858,163.682778 230.156551,160.815339 226.140464,161.214942 C222.22386,161.60702 219.363108,165.103122 219.756023,169.026414 L223.251289,203.981584 L175.133486,203.981584 C171.188459,203.980748 168,207.176731 168,211.115071 Z M319.592229,218.248557 L385.900296,218.248557 L381.620037,261.051148 L319.592229,261.051148 L319.592229,218.248557 Z M305.32442,218.248557 L305.32442,261.051148 L243.296612,261.051148 L239.016353,218.248557 L305.32442,218.248557 Z" id="Shape"></path>
            <path d="M520.02,115.529 C518.399,113.592 516.001,112.466 513.466,112.466 L129.466,112.466 C124.747,112.466 120.933,116.289 120.933,120.999 C120.933,125.709 124.747,129.532 129.466,129.532 L503.235,129.532 C490.964,196.578 468.974,312.819 462.71,331.635 C456.293,350.878 437.409,351.39 436.666,351.398 L172.133,351.398 C155.331,351.398 148.035,342.626 146.14,339.861 L95.205,42.756 C95.145,42.329 95.034,41.911 94.889,41.502 C93.822,38.285 83.77,10.065 61.199,10.065 L35.6,10.065 C25.309,10.065 10,16.883 10,35.665 C10,54.447 25.309,61.265 35.6,61.265 L52.667,61.265 C57.386,61.265 61.2,57.442 61.2,52.732 C61.2,48.022 57.386,44.199 52.667,44.199 L35.702,44.199 C31.76,44.097 27.066,42.535 27.066,35.666 C27.066,28.797 31.759,27.235 35.599,27.133 L61.199,27.133 C69.715,27.133 76.499,40.812 78.505,46.342 L129.594,344.309 C129.731,345.137 129.995,345.93 130.362,346.681 C130.806,347.569 141.609,368.467 172.133,368.467 L436.666,368.467 C447.648,368.467 470.612,361.896 478.889,337.03 C487.525,311.157 520.463,130.216 521.854,122.528 C522.316,120.034 521.642,117.474 520.02,115.529 Z" id="Shape" stroke="#FFFFFF" stroke-width="15"></path>
        </g>
    </g>
</svg>