<?xml version="1.0" encoding="UTF-8"?>
<svg width="592px" height="522px" viewBox="0 0 592 522" version="1.1" xmlns="http://www.w3.org/2000/svg" xmlns:xlink="http://www.w3.org/1999/xlink">
    <!-- Generator: Sketch 50.2 (55047) - http://www.bohemiancoding.com/sketch -->
    <title>Shape</title>
    <desc>Created with Sketch.</desc>
    <defs></defs>
    <g id="Page-1" stroke="none" stroke-width="1" fill="none" fill-rule="evenodd">
        <g id="layers-alt" fill="#FFFFFF" fill-rule="nonzero">
            <path d="M383.058824,0 L0,0 L0,313.2 L383.058824,313.2 L383.058824,0 Z M348.235294,278.4 L34.8235294,278.4 L34.8235294,34.8 L348.235294,34.8 L348.235294,278.4 Z M487.529412,417.6 L104.470588,417.6 L104.470588,348.6612 L139.294118,348.6612 L139.294118,382.8 L452.705882,382.8 L452.705882,139.2 L418.091294,139.2 L418.091294,104.4 L487.529412,104.4 L487.529412,417.6 Z M592,208.8 L592,522 L208.941176,522 L208.941176,453.0612 L243.764706,453.0612 L243.764706,487.2 L557.176471,487.2 L557.176471,243.6 L522.561882,243.6 L522.561882,208.8 L592,208.8 Z" id="Shape"></path>
        </g>
    </g>
</svg>