<?xml version="1.0" standalone="no"?>
<!DOCTYPE svg PUBLIC "-//W3C//DTD SVG 20010904//EN"
 "http://www.w3.org/TR/2001/REC-SVG-20010904/DTD/svg10.dtd">
<svg version="1.0" xmlns="http://www.w3.org/2000/svg"
 width="1157.000000pt" height="1280.000000pt" viewBox="0 0 1157.000000 1280.000000"
 preserveAspectRatio="xMidYMid meet">
<metadata>
Created by potrace 1.15, written by Peter Selinger 2001-2017
</metadata>
<g transform="translate(0.000000,1280.000000) scale(0.100000,-0.100000)"
fill="#ff9800" stroke="none">
<path d="M6820 12790 c-762 -55 -1481 -284 -2140 -680 -1269 -762 -2245 -2108
-2699 -3720 -50 -180 -121 -473 -121 -503 0 -16 -52 -17 -723 -17 l-724 0 -11
-25 c-108 -236 -402 -927 -402 -943 l0 -22 861 0 861 0 -6 -107 c-15 -273 -17
-486 -7 -698 7 -126 14 -242 17 -257 l6 -28 -662 -2 -662 -3 -28 -75 c-165
-431 -350 -922 -350 -930 0 -7 332 -10 928 -10 l927 0 43 -171 c48 -189 146
-497 221 -696 463 -1223 1272 -2269 2296 -2965 1069 -728 2329 -1048 3550
-902 1032 123 2093 576 3082 1318 l162 121 -1 465 c0 256 -4 599 -7 762 l-6
298 -74 -103 c-222 -304 -562 -665 -821 -871 -648 -514 -1391 -825 -2235 -935
-462 -61 -983 -53 -1405 19 -946 163 -1798 616 -2482 1319 -378 388 -663 788
-912 1281 -151 298 -309 703 -386 988 -6 24 -14 50 -17 58 -4 12 421 14 3234
14 l3238 0 178 503 c97 276 177 505 177 510 0 4 -1577 7 -3504 7 l-3503 0 -6
38 c-4 20 -11 138 -17 263 -12 230 1 764 18 781 4 4 1675 9 3712 10 l3704 3
192 490 192 490 -3824 3 c-3177 2 -3824 4 -3824 15 0 20 76 293 120 431 221
695 557 1310 1009 1851 176 211 503 519 737 696 986 743 2211 1007 3514 758
1161 -222 2158 -833 2867 -1756 45 -59 73 -88 76 -79 49 128 387 1086 386
1097 -1 33 -530 445 -849 661 -1055 716 -2076 1121 -3110 1233 -175 19 -617
27 -790 15z"/>
</g>
</svg>
