<?xml version="1.0" encoding="UTF-8"?>
<svg width="450px" height="492px" viewBox="0 0 450 492" version="1.1" xmlns="http://www.w3.org/2000/svg" xmlns:xlink="http://www.w3.org/1999/xlink">
    <!-- Generator: Sketch 50.2 (55047) - http://www.bohemiancoding.com/sketch -->
    <title>stack-overflow</title>
    <desc>Created with Sketch.</desc>
    <defs></defs>
    <g id="Page-1" stroke="none" stroke-width="1" fill="none" fill-rule="evenodd">
        <g id="stack-overflow" fill="#FFFFFF">
            <path d="M374.11582,482.12925 C374.11582,491.72325 373.793213,491.72325 373.793213,491.72325 L373.793213,492 L11.542138,492 C0.322606341,492 0.322606341,491.72325 0.322606341,491.72325 L0,491.72325 L0,289.63425 L38.748606,289.63425 L38.748606,459.3435 L335.76151,459.3435 L335.76151,289.63425 L374.11582,289.63425 L374.11582,482.12925 Z" id="Path"></path>
            <path d="M297.012904,426.072 L70.758324,426.34875 L70.758324,384.89775 L297.012904,384.621 L297.012904,426.072 Z M302.461367,331.6695 L298.30333,372.84375 L72.6581169,355.00875 L77.1387606,313.8345 L302.461367,331.6695 Z M317.516329,277.3035 L305.006372,317.43225 L86.4226541,267.156 L98.896766,227.058 L317.516329,277.3035 Z M345.977378,230.0715 L321.315915,265.7415 L126.42584,166.94175 L151.051458,131.241 L345.977378,230.0715 Z M393.651426,200.982 L354.006691,224.32125 L226.25458,63.99075 L266.257766,40.344 L393.651426,200.982 Z M450,191.388 L402.290107,198.522 L363.577346,7.134 L411.251394,0 L450,191.388 Z" id="Shape" fill-rule="nonzero"></path>
        </g>
    </g>
</svg>