<?xml version="1.0" encoding="UTF-8"?>
<svg width="852px" height="498px" viewBox="0 0 852 498" version="1.1" xmlns="http://www.w3.org/2000/svg" xmlns:xlink="http://www.w3.org/1999/xlink">
    <!-- Generator: Sketch 50.2 (55047) - http://www.bohemiancoding.com/sketch -->
    <title>delivery-truck-2</title>
    <desc>Created with Sketch.</desc>
    <defs></defs>
    <g id="Page-1" stroke="none" stroke-width="1" fill="none" fill-rule="evenodd">
        <g id="delivery-truck-2" transform="translate(426.000000, 223.000000) scale(-1, 1) translate(-426.000000, -223.000000) translate(0.000000, -52.000000)" fill-rule="nonzero">
            <g id="Group" transform="translate(0.000000, 87.000000)" fill="#ECF4F7">
                <path d="M185.562937,0.811293773 L17.7572109,0.811293773 C7.95421875,0.811293773 0,8.76976769 0,18.574288 C0,28.3804728 7.95421875,36.3256299 17.7572109,36.3256299 L185.562937,36.3256299 L185.562937,0.811293773 Z" id="Shape"></path>
                <path d="M221.079023,107.34265 L53.2483359,107.34265 C43.4453437,107.34265 35.4894609,115.287807 35.4894609,125.093992 C35.4894609,134.911829 43.4453437,142.856986 53.2483359,142.856986 L221.079023,142.856986 L221.079023,107.34265 Z" id="Shape"></path>
                <path d="M256.568484,213.874006 L88.7377969,213.874006 C78.9348047,213.874006 70.9789219,221.819163 70.9789219,231.625348 C70.9789219,241.441521 78.9348047,249.401659 88.7377969,249.401659 L256.568484,249.401659 L256.568484,213.874006 Z" id="Shape"></path>
                <path d="M124.227258,320.405362 C114.424266,320.405362 106.496672,328.363836 106.496672,338.143387 C106.496672,347.974541 114.42593,355.906382 124.227258,355.906382 L292.057945,355.906382 L292.057945,320.405362 L124.227258,320.405362 Z" id="Shape"></path>
                <polygon id="Shape" points="709.466391 71.9315193 604.479023 71.839966 535.004414 71.839966 532.431773 391.407401 851.608945 391.407401 851.973375 213.874006"></polygon>
            </g>
            <path d="M602.973401,442.507212 C602.973401,462.11337 587.102187,478 567.517106,478 L177.454633,478 C157.871214,478 142,462.11337 142,442.507212 L142.026599,87.4944526 C142.026599,67.8882942 157.922749,52 177.481232,52 L567.543705,52 C587.128786,52 603,67.8882942 603,87.4944526 L602.973401,442.507212 Z" id="Shape" fill="#FE8944"></path>
            <path d="M213,461.01335 C213,510.159839 252.844843,550 301.999166,550 C351.153488,550 391,510.159839 391,461.01335 C391,411.840161 351.153488,372 301.999166,372 C252.844843,372 213,411.840161 213,461.01335 Z" id="Shape" fill="#434A54"></path>
            <path d="M284,461.014348 C284,470.958363 292.063906,479 302,479 C311.936094,479 320,470.956675 320,461.014348 C320,451.072021 311.936094,443 302,443 C292.063906,443 284,451.070333 284,461.014348 Z" id="Shape" fill="#F5F7FA"></path>
            <path d="M621,461.01335 C621,510.159839 660.844843,550 710.000834,550 C759.153488,550 799,510.159839 799,461.01335 C799,411.840161 759.153488,372 710.000834,372 C660.844843,372 621,411.840161 621,461.01335 Z" id="Shape" fill="#434A54"></path>
            <path d="M692,461.014348 C692,470.958363 700.069955,479 710.013503,479 C719.957052,479 728,470.956675 728,461.014348 C728,451.072021 719.955364,443 710.013503,443 C700.071643,443 692,451.070333 692,461.014348 Z" id="Shape" fill="#F5F7FA"></path>
        </g>
    </g>
</svg>