<?xml version="1.0" encoding="UTF-8"?>
<svg width="862px" height="550px" viewBox="0 0 862 550" version="1.1" xmlns="http://www.w3.org/2000/svg" xmlns:xlink="http://www.w3.org/1999/xlink">
    <!-- Generator: Sketch 50.2 (55047) - http://www.bohemiancoding.com/sketch -->
    <title>delivery-truck-2</title>
    <desc>Created with Sketch.</desc>
    <defs></defs>
    <g id="Page-1" stroke="none" stroke-width="1" fill="none" fill-rule="evenodd">
        <g id="delivery-truck" transform="translate(431.000000, 275.000000) scale(-1, 1) translate(-431.000000, -275.000000) " fill="#FFFFFF" fill-rule="nonzero">
            <path d="M717.815348,154.878945 L611.617621,154.786316 L610.538437,154.786316 L610.538437,82.933263 C610.538437,63.0921601 594.465168,47 574.63075,47 L179.61925,47 C159.784832,47 143.711562,63.0921601 143.711562,82.933263 L17.9673125,82.933263 C8.04926172,82.9349472 0,90.9734485 0,100.894842 C0,110.816236 8.04926172,118.854737 17.9673125,118.854737 L143.711562,118.854737 L143.684625,190.721263 L53.875,190.721263 C43.9569492,190.721263 35.934625,198.747975 35.934625,208.667685 C35.934625,218.587394 43.9569492,226.641053 53.875,226.641053 L143.684625,226.641053 L143.684625,298.507579 L89.809625,298.507579 C79.8915742,298.507579 71.8423125,306.534291 71.8423125,316.454 C71.8423125,326.37371 79.8915742,334.427368 89.809625,334.427368 L143.684625,334.427368 L143.684625,406.266948 L125.717312,406.266948 C115.799262,406.266948 107.75,414.320607 107.75,424.240316 C107.75,434.160025 115.799262,442.213684 125.717312,442.213684 L143.684625,442.213684 C143.684625,462.054787 159.757895,478.133474 179.592312,478.133474 L217.314914,478.133474 C225.6285,519.132694 261.85102,550 305.282687,550 C348.739609,550 384.963812,519.132694 393.277398,478.133474 L574.605496,478.133474 L630.347602,478.133474 C638.661187,519.132694 674.883707,550 718.315375,550 C761.772297,550 797.9965,519.132694 806.310086,478.133474 L861.631293,478.133474 L862,298.480632 L717.815348,154.878945 Z M305.282687,514.053264 C275.58241,514.053264 251.434625,489.895656 251.434625,460.160106 C251.434625,430.449818 275.584094,406.266948 305.282687,406.266948 C335.008219,406.266948 359.157687,430.449818 359.157687,460.160106 C359.157687,489.89734 335.008219,514.053264 305.282687,514.053264 Z M393.277398,442.213684 C384.963812,401.214464 348.741293,370.347158 305.282687,370.347158 C261.85102,370.347158 225.6285,401.214464 217.314914,442.213684 L179.592312,442.213684 L179.61925,82.9349472 L574.632434,82.9349472 L574.605496,442.213684 L393.277398,442.213684 Z M718.315375,514.053264 C688.615098,514.053264 664.440375,489.895656 664.440375,460.160106 C664.440375,430.449818 688.615098,406.266948 718.315375,406.266948 C748.040906,406.266948 772.190375,430.449818 772.190375,460.160106 C772.190375,489.89734 748.040906,514.053264 718.315375,514.053264 Z M825.802734,442.213684 L806.310086,442.213684 C797.9965,401.214464 761.77398,370.347158 718.315375,370.347158 C674.883707,370.347158 638.661187,401.214464 630.347602,442.213684 L610.513184,442.213684 L610.540121,190.721263 L611.56543,190.721263 L702.97952,190.800419 L826.065375,313.4023 L825.802734,442.213684 Z" id="Shape"></path>
        </g>
    </g>
</svg>