<?xml version="1.0" encoding="UTF-8"?>
<svg width="470px" height="474px" viewBox="0 0 470 474" version="1.1" xmlns="http://www.w3.org/2000/svg" xmlns:xlink="http://www.w3.org/1999/xlink">
    <!-- Generator: Sketch 50.2 (55047) - http://www.bohemiancoding.com/sketch -->
    <title>Group 3</title>
    <desc>Created with Sketch.</desc>
    <defs>
        <path d="M99.9212939,190.213818 C99.9212939,190.213818 203.977187,190.213818 412.088973,190.213818 C415.467672,190.213818 418.824887,190.213818 418.824887,190.213818 L469.056638,405.659122 C469.056638,405.659122 476.581735,430.454313 461.570034,450.428861 C446.558333,470.403408 429.055641,473.866587 426.960034,473.866587 L53.2106078,473.866587 C53.2106078,473.866587 42.3787108,473.226597 31.3636813,468.005883 C25.2639822,465.114853 19.2644657,459.963885 14.6458661,454.76974 C8.85458155,448.256777 3.72205818,438.641633 1.95504415,431.006498 C-0.206764195,421.665485 1.72542579,414.756341 1.95504415,413.524453 L53.2106078,190.213818 C53.2106078,190.213818 99.9212939,190.213818 99.9212939,190.213818 Z" id="path-1"></path>
    </defs>
    <g id="Page-1" stroke="none" stroke-width="1" fill="none" fill-rule="evenodd">
        <g id="Group-3" transform="translate(-1.000000, 0.000000)">
            <rect id="Rectangle-path" fill="#FFFFFF" fill-rule="nonzero" x="221" y="279" width="30.001" height="39.371"></rect>
            <polygon id="Shape" fill="#FFFFFF" fill-rule="nonzero" points="280.269 294.001 280.269 264 236.016 264 216 279.001 236.016 294.001"></polygon>
            <rect id="Rectangle-path" fill="#FFFFFF" fill-rule="nonzero" x="191" y="264" width="44.251" height="30.001"></rect>
            <rect id="Rectangle-path" fill="#FFFFFF" fill-rule="nonzero" x="94" y="264" width="52.686" height="30.001"></rect>
            <rect id="Rectangle-path" fill="#FFFFFF" fill-rule="nonzero" x="324" y="268" width="52.686" height="30.001"></rect>
            <path d="M236.016,0.690191523 L216,14.852156 L236.016,29.0141205 C291.169,29.0141205 336.039,71.3772768 336.039,123.448932 L336.039,263.672207 L366.04,263.672207 L366.04,123.449876 C366.04,55.7594624 307.712,0.690191523 236.016,0.690191523 Z" id="Shape" fill="#FFFFFF" fill-rule="nonzero"></path>
            <path d="M106,123.449876 L106,263.673151 L136.053146,263.673151 L136.053146,123.449876 C136.053146,71.378221 181.001136,29.0150646 236.25,29.0150646 L236.25,0.690191523 C164.429382,0.690191523 106,55.7594624 106,123.449876 Z" id="Shape" fill="#FFFFFF" fill-rule="nonzero"></path>
            <mask id="mask-2" fill="white">
                <use xlink:href="#path-1"></use>
            </mask>
            <path stroke="#FFFFFF" stroke-width="28" d="M64.3612877,204.213818 L15.6002287,416.656376 L15.5992351,416.656148 C15.4838532,417.207006 15.3180606,418.007752 15.2604399,418.346272 C14.7797095,421.170547 14.7767367,424.316226 15.5945378,427.849884 C16.8188232,433.139929 20.8352833,440.661691 25.1080141,445.466867 C29.0370297,449.885495 33.5827783,453.564764 37.3597683,455.354917 C41.0467501,457.102409 45.0994123,458.357428 49.1492361,459.163047 C50.5675,459.445178 51.8673238,459.648035 53.003208,459.783443 C53.2957973,459.818322 53.5532276,459.845764 53.7727462,459.866587 L426.10309,459.866587 C426.399415,459.800825 426.771929,459.705087 427.199118,459.579738 C428.898597,459.081065 430.878371,458.292946 432.999738,457.197882 C439.077424,454.060542 445.034658,449.128093 450.37832,442.017824 C454.937127,435.951882 456.94718,428.610557 456.942726,420.561283 C456.941102,417.626765 456.66665,414.830316 456.215972,412.306995 C456.064267,411.457611 455.906477,410.719456 455.756238,410.10894 C455.710542,409.923251 455.671785,409.774918 455.64172,409.665949 C455.639431,409.657653 455.638588,409.654483 455.639265,409.65652 L455.526614,409.285337 L407.713544,204.213818 C313.796906,204.213818 312.681751,204.213818 238.662485,204.213818 C175.072772,204.213818 175.072772,204.213818 134.606592,204.213818 C118.709163,204.213818 118.709163,204.213818 108.592618,204.213818 C101.366515,204.213818 101.366515,204.213818 99.9212939,204.213818 C98.461585,204.213818 98.461585,204.213818 92.6227492,204.213818 C85.3242045,204.213818 85.3242045,204.213818 76.5659509,204.213818 C69.6890076,204.213818 68.2118107,204.213818 64.3612877,204.213818 Z M54.0996685,459.894851 C54.1001814,459.894888 54.1006907,459.894925 54.1011965,459.894962 C54.1052314,459.895248 54.1072489,459.895391 54.1068638,459.895368 Z"></path>
        </g>
    </g>
</svg>